<svg id="Layer_7" data-name="Layer 7" xmlns="http://www.w3.org/2000/svg" xmlns:xlink="http://www.w3.org/1999/xlink" viewBox="0 0 113.38583 113.38583"><defs><style>.cls-1,.cls-3,.cls-4{fill:none;}.cls-2{fill:#fff;}.cls-3,.cls-4{stroke:#13120d;stroke-width:0.5px;}.cls-3{stroke-miterlimit:10;}.cls-4{stroke-linecap:round;stroke-linejoin:round;}.cls-5{fill:#2b2523;}.cls-6{opacity:0.2;}.cls-7{clip-path:url(#clip-path);}.cls-8{fill:#13120d;}.cls-9{clip-path:url(#clip-path-2);}.cls-10{clip-path:url(#clip-path-3);}.cls-11{fill:#df0969;}.cls-12{clip-path:url(#clip-path-4);}.cls-13{clip-path:url(#clip-path-5);}.cls-14{clip-path:url(#clip-path-6);}.cls-15{font-size:13.54536px;fill:#1d1d1b;font-family:MyriadPro-Regular, Myriad Pro;}.cls-16{letter-spacing:-0.008em;}.cls-17{letter-spacing:0.00404em;}.cls-18{letter-spacing:-0.00699em;}.cls-19{letter-spacing:-0.00404em;}</style><clipPath id="clip-path" transform="translate(0 0)"><rect class="cls-1" x="27.88032" y="43.57365" width="52.88219" height="34.2751"/></clipPath><clipPath id="clip-path-2" transform="translate(0 0)"><rect class="cls-1" x="37.61124" y="43.57365" width="18.90956" height="24.35909"/></clipPath><clipPath id="clip-path-3" transform="translate(0 0)"><rect class="cls-1" x="73.44705" y="15.08523" width="11.66099" height="10.19583"/></clipPath><clipPath id="clip-path-4" transform="translate(0 0)"><rect class="cls-1" x="80.57332" y="6.05155" width="4.98271" height="8.98154"/></clipPath><clipPath id="clip-path-5" transform="translate(0 0)"><rect class="cls-1" x="74.88137" y="25.42111" width="7.16613" height="9.01621"/></clipPath><clipPath id="clip-path-6" transform="translate(0 0)"><rect class="cls-1" x="68.20855" y="32.00193" width="10.29056" height="21.27998"/></clipPath></defs><title>case-07</title><rect class="cls-2" width="113.38583" height="113.38583" rx="14.15184" ry="14.15184"/><path class="cls-2" d="M74.49235,42.7978a6.17059,6.17059,0,0,1,6.153,6.18771l-.06415,22.62612a6.16849,6.16849,0,0,1-6.18771,6.153l-40.41067-.11056a6.17285,6.17285,0,0,1-6.153-6.18771L27.891,48.83755a6.172,6.172,0,0,1,6.18771-6.15168Z" transform="translate(0 0)"/><path class="cls-3" d="M74.49235,42.7978a6.17059,6.17059,0,0,1,6.153,6.18771l-.06415,22.62612a6.16849,6.16849,0,0,1-6.18771,6.153l-40.41067-.11056a6.17285,6.17285,0,0,1-6.153-6.18771L27.891,48.83755a6.172,6.172,0,0,1,6.18771-6.15168Z" transform="translate(0 0)"/><path class="cls-3" d="M51.938,77.70352s4.3884-.87713,4.39632-4.8241c.01065-3.94451.07207-25.42951.07207-25.42951s.66365-3.70427-4.37229-4.71736" transform="translate(0 0)"/><path class="cls-2" d="M44.7932,44.8641l.01611-5.992A6.61778,6.61778,0,0,0,42.62043,37.767c-.65573,0-8.65641,7.06375-8.65641,7.06375" transform="translate(0 0)"/><path class="cls-3" d="M44.7932,44.8641l.01611-5.992A6.61778,6.61778,0,0,0,42.62043,37.767c-.65573,0-8.65641,7.06375-8.65641,7.06375" transform="translate(0 0)"/><path class="cls-4" d="M31.19148,43.39648l-.03467,12.59136s.44007,4.56939,4.223,4.188l6.081.01338v2.07285s-4.43617-.33715-3.96143,3.27785c.49057,3.62156,8.87235,3.97235,9.37357.02675l8.70418-.03221" transform="translate(0 0)"/><path class="cls-5" d="M37.54708,49.336a1.47569,1.47569,0,1,1-1.47936,1.47445A1.479,1.479,0,0,1,37.54708,49.336" transform="translate(0 0)"/><g class="cls-6"><g class="cls-7"><path class="cls-8" d="M27.91253,68.34989s.84219,6.03565,6.13693,6.27152c5.29993.23751,40.95721,0,40.95721,0s2.83123.3467,2.59946-2.93634c-.232-3.28331,0-28.11141,0-28.11141s2.65515,2.398,2.87928,3.64694c.61833,3.43264,0,25.79723,0,25.79723s.73845,5.74655-8.82976,4.70835c-8.81911-.95849-37.5849-.1122-37.5849-.1122s-6.70749.73327-6.15823-9.26409" transform="translate(0 0)"/></g></g><g class="cls-6"><g class="cls-9"><path class="cls-8" d="M41.73811,62.15016s-2.63932.16-2.63932,2.23146c.00792,2.07395,6.06787,3.18968,6.70749-.47856h8.85105V43.57365s1.89022,1.27707,1.86347,2.79138c-.03194,1.51294,0,18.81374,0,18.81374L46.958,65.09606s-.79988,3.659-6.03565,2.66853c-5.244-.99179-3.73239-6.41157.81571-5.61442" transform="translate(0 0)"/></g></g><path class="cls-8" d="M68.34177,51.55959V67.60734a4.06558,4.06558,0,1,0,8.13116,0V53.6551h.80261a1.46571,1.46571,0,1,0,0-2.93142h-.8957a4.06213,4.06213,0,0,0-8.03807.83591" transform="translate(0 0)"/><path class="cls-4" d="M68.34177,51.55959V67.60734a4.06558,4.06558,0,1,0,8.13116,0V53.6551h.80261a1.46571,1.46571,0,1,0,0-2.93142h-.8957a4.06213,4.06213,0,0,0-8.03807.83591Z" transform="translate(0 0)"/><path class="cls-2" d="M82.13294,28.17235l-1.55962-4.44272c-.528-.92245-2.74606-2.02481-3.671-1.49847-.92.528-2.79138,2.28224-2.26613,3.20469L78.28589,29.192V32.5471a1.92353,1.92353,0,1,0,3.847,0Z" transform="translate(0 0)"/><path class="cls-4" d="M82.13294,28.17235l-1.55962-4.44272c-.528-.92245-2.74606-2.02481-3.671-1.49847-.92.528-2.79138,2.28224-2.26613,3.20469L78.28589,29.192V32.5471a1.92353,1.92353,0,1,0,3.847,0Z" transform="translate(0 0)"/><path class="cls-2" d="M64.64951,26.33428a1.73965,1.73965,0,0,1,2.17277,1.15559l3.1217,10.192a1.73967,1.73967,0,0,1-3.327,1.01827L63.495,28.50568a1.73935,1.73935,0,0,1,1.1545-2.1714" transform="translate(0 0)"/><path class="cls-3" d="M64.64951,26.33428a1.73965,1.73965,0,0,1,2.17277,1.15559l3.1217,10.192a1.73967,1.73967,0,0,1-3.327,1.01827L63.495,28.50568A1.73935,1.73935,0,0,1,64.64951,26.33428Z" transform="translate(0 0)"/><path class="cls-2" d="M63.33258,28.96541a1.737,1.737,0,0,1,2.17277,1.1545l3.1217,10.192a1.73869,1.73869,0,1,1-3.32454,1.01964L62.17808,31.13681a1.74085,1.74085,0,0,1,1.1545-2.1714" transform="translate(0 0)"/><path class="cls-3" d="M63.33258,28.96541a1.737,1.737,0,0,1,2.17277,1.1545l3.1217,10.192a1.73869,1.73869,0,1,1-3.32454,1.01964L62.17808,31.13681A1.74085,1.74085,0,0,1,63.33258,28.96541Z" transform="translate(0 0)"/><path class="cls-2" d="M73.354,11.73121l-2.02617,5.89069L60.821,28.07762s-2.34585,2.08213-1.58337,4.60434c.77039,2.52712,3.95079,10.71452,4.41734,11.189a2.49649,2.49649,0,0,0,3.04717.73572c.99725-.44908.83182-2.41519.83182-2.41519-.13322-.65328-3.10832-9.60834-3.10832-9.60834l8.8961-7.24475s8.20869,1.341,10.62143-5.88114c2.42065-7.21936,1.16487-3.68844,1.16487-3.68844Z" transform="translate(0 0)"/><path class="cls-3" d="M73.354,11.73121l-2.02617,5.89069L60.821,28.07762s-2.34585,2.08213-1.58337,4.60434c.77039,2.52712,3.95079,10.71452,4.41734,11.189a2.49649,2.49649,0,0,0,3.04717.73572c.99725-.44908.83182-2.41519.83182-2.41519-.13322-.65328-3.10832-9.60834-3.10832-9.60834l8.8961-7.24475s8.20869,1.341,10.62143-5.88114c2.42065-7.21936,1.16487-3.68844,1.16487-3.68844Z" transform="translate(0 0)"/><g class="cls-6"><g class="cls-10"><path class="cls-8" d="M73.44705,24.97449s7.12081-2.35813,8.11533-5.40394c1.00244-3.0499,1.54625-4.48668,1.54625-4.48668l1.99423.68495-1.6822,5.21612s-3.75641,5.65592-9.97361,3.98955" transform="translate(0 0)"/></g></g><rect class="cls-11" x="71.44245" y="6.28086" width="14.00165" height="9.08419"/><rect class="cls-3" x="71.44245" y="6.28086" width="14.00165" height="9.08419"/><path class="cls-2" d="M74.63622,12.82838A1.7596,1.7596,0,1,0,72.882,11.06893a1.75607,1.75607,0,0,0,1.75427,1.75945" transform="translate(0 0)"/><ellipse class="cls-3" cx="74.63622" cy="11.06886" rx="1.75427" ry="1.75959"/><g class="cls-6"><g class="cls-12"><rect class="cls-8" x="80.57332" y="6.05155" width="4.98271" height="8.98154"/></g></g><g class="cls-6"><g class="cls-13"><path class="cls-8" d="M78.33913,25.42111s.6,2.6314,1.31447,3.18858v3.58552a1.45867,1.45867,0,0,0,2.3939.89843s-2.98575,3.65923-3.54839-1.09171l-.21321-2.81131-3.40452-3.499Z" transform="translate(0 0)"/></g></g><path class="cls-11" d="M68.20855,33.047V49.09635a4.06558,4.06558,0,0,0,8.13116,0V35.13974h.80261a1.46491,1.46491,0,1,0,0-2.92979H76.2518a4.065,4.065,0,0,0-8.04326.837" transform="translate(0 0)"/><path class="cls-3" d="M68.20855,33.047V49.09635a4.06558,4.06558,0,0,0,8.13116,0V35.13974h.80261a1.46491,1.46491,0,1,0,0-2.92979H76.2518a4.065,4.065,0,0,0-8.04326.837Z" transform="translate(0 0)"/><g class="cls-6"><g class="cls-14"><path class="cls-8" d="M68.20855,49.73871s1.67428,2.33,3.91093,2.33A3.04635,3.04635,0,0,0,75.284,49.25605c-.02129-.95576,0-14.94922,0-14.94922l1.97539-.02812s.72508-.18782.74664-1.63278h0s1.914,2.3221-1.781,2.5607l.01611,14.70817a3.8522,3.8522,0,0,1-4.00429,3.36712,3.93161,3.93161,0,0,1-4.02832-3.54321" transform="translate(0 0)"/></g></g><text class="cls-15" transform="translate(13.14502 99.93359)">O<tspan class="cls-16" x="9.33252" y="0">r</tspan><tspan x="13.65332" y="0">gan </tspan><tspan class="cls-17" x="38.14307" y="0">R</tspan><tspan x="45.48486" y="0">em</tspan><tspan class="cls-18" x="63.56787" y="0">o</tspan><tspan class="cls-19" x="70.90967" y="0">v</tspan><tspan x="77.37061" y="0">al </tspan></text></svg>