<svg id="Layer_1" data-name="Layer 1" xmlns="http://www.w3.org/2000/svg" xmlns:xlink="http://www.w3.org/1999/xlink" viewBox="0 0 113.38583 113.38583"><defs><style>.cls-1,.cls-3,.cls-4{fill:none;}.cls-2{fill:#fff;}.cls-3,.cls-4{stroke:#13120d;stroke-width:0.5px;}.cls-3{stroke-linecap:round;stroke-linejoin:round;}.cls-4{stroke-miterlimit:10;}.cls-5{fill:#13120d;}.cls-6{fill:#e30080;}.cls-7{opacity:0.2;}.cls-8{clip-path:url(#clip-path);}.cls-9{clip-path:url(#clip-path-2);}.cls-10{clip-path:url(#clip-path-3);}.cls-11{clip-path:url(#clip-path-4);}.cls-12{fill:#df0969;}.cls-13{clip-path:url(#clip-path-5);}.cls-14{clip-path:url(#clip-path-6);}.cls-15{font-size:13.54536px;fill:#1d1d1b;font-family:MyriadPro-Regular, Myriad Pro;}.cls-16{letter-spacing:-0.031em;}.cls-17{letter-spacing:-0.00999em;}.cls-18{letter-spacing:-0.00598em;}.cls-19{letter-spacing:0.00598em;}.cls-20{letter-spacing:0.004em;}</style><clipPath id="clip-path"><rect class="cls-1" x="13.49746" y="25.70921" width="20.62446" height="33.88686"/></clipPath><clipPath id="clip-path-2"><rect class="cls-1" x="22.2447" y="48.71419" width="2.33555" height="8.54716"/></clipPath><clipPath id="clip-path-3"><rect class="cls-1" x="20.8593" y="45.65" width="4.84975" height="3.08794"/></clipPath><clipPath id="clip-path-4"><rect class="cls-1" x="19.7593" y="28.66769" width="14.69299" height="15.80434"/></clipPath><clipPath id="clip-path-5"><rect class="cls-1" x="84.8259" y="44.08007" width="15.06246" height="15.33336"/></clipPath><clipPath id="clip-path-6"><rect class="cls-1" x="64.38429" y="56.63128" width="26.29931" height="30.47484"/></clipPath></defs><title>case-01</title><rect class="cls-2" width="113.38583" height="113.38583" rx="14.15184" ry="14.15184"/><path class="cls-2" d="M42.53668,67.1294,71.619,68.53414a12.78485,12.78485,0,0,0-3.91809-9.54965,1.6603,1.6603,0,0,0,.02459-.22782l.13135-2.71322,1.26834-26.16292a6.31091,6.31091,0,0,0-5.997-6.6086l-7.01906-.33857a6.308,6.308,0,0,0-6.60462,5.996l-.77992,16.12547a3.49957,3.49957,0,0,0-.32008,6.60062l-.2791,5.78351a12.81513,12.81513,0,0,0-5.58868,9.69046"/><path class="cls-3" d="M42.53668,67.1294,71.619,68.53414a12.78485,12.78485,0,0,0-3.91809-9.54965,1.6603,1.6603,0,0,0,.02459-.22782l.13135-2.71322,1.26834-26.16292a6.31091,6.31091,0,0,0-5.997-6.6086l-7.01906-.33857a6.308,6.308,0,0,0-6.60462,5.996l-.77992,16.12547a3.49957,3.49957,0,0,0-.32008,6.60062l-.2791,5.78351A12.81513,12.81513,0,0,0,42.53668,67.1294Z"/><path class="cls-4" d="M67.93081,54.55528c-17.903.18684-11.77655-19.42673-11.77655-19.42673a7.1133,7.1133,0,0,1-6.6498-6.19921"/><path class="cls-5" d="M52.79437,35.6672a1.053,1.053,0,1,1-1.00143-1.101,1.05435,1.05435,0,0,1,1.00143,1.101"/><path class="cls-4" d="M51.762,35.22186s-.78391.01135-.97474-1.62541"/><path class="cls-6" d="M50.99852,40.18468s-2.37254-2.67854-2.73781-.59329c0,0,.02879.72254.61788.818a9.19623,9.19623,0,0,0,2.11993-.22467"/><path class="cls-3" d="M50.99852,40.18468s-2.37254-2.67854-2.73781-.59329c0,0,.02879.72254.61788.818A9.19623,9.19623,0,0,0,50.99852,40.18468Z"/><path class="cls-6" d="M50.92475,40.30678s-2.12623,2.88157-2.67014.83415c0,0-.03909-.72444.5418-.87008a9.2218,9.2218,0,0,1,2.12833.03593"/><path class="cls-3" d="M50.92475,40.30678s-2.12623,2.88157-2.67014.83415c0,0-.03909-.72444.5418-.87008A9.2218,9.2218,0,0,1,50.92475,40.30678Z"/><path class="cls-3" d="M46.21854,48.24132a4.359,4.359,0,0,0,5.59688-1.484c2.26389-3.22119,3.38238-3.07954,3.38238-3.07954"/><path class="cls-4" d="M55.60615,46.38494a1.88412,1.88412,0,0,0-2.57157.60948,2.91969,2.91969,0,0,0,.37766,3.06419l3.58141,3.04465L51.76625,56.931s-1.20277.49872-.509,2.3593"/><path class="cls-4" d="M54.43218,59.44412l5.5517-3.78358a2.46565,2.46565,0,0,0,.64646-2.58691"/><path class="cls-4" d="M49.921,26.9622s8.47235,8.14575,19.16318,3.70435l.03279-1.46736s-11.20805,1.91186-18.19012-3.95382Z"/><path class="cls-4" d="M49.921,26.9622,43.18314,38.66477a37.08132,37.08132,0,0,0,25.17052,7.17206"/><path class="cls-2" d="M33.80793,59.09314a4.639,4.639,0,0,1-4.7453,4.53177l-10.99053-.24946a4.643,4.643,0,0,1-4.53366-4.744L14.183,30.23866a4.64592,4.64592,0,0,1,4.74509-4.53261l10.99242.25136a4.63418,4.63418,0,0,1,4.53177,4.74214Z"/><path class="cls-3" d="M33.80793,59.09314a4.639,4.639,0,0,1-4.7453,4.53177l-10.99053-.24946a4.643,4.643,0,0,1-4.53366-4.744L14.183,30.23866a4.64592,4.64592,0,0,1,4.74509-4.53261l10.99242.25136a4.63418,4.63418,0,0,1,4.53177,4.74214Z"/><path class="cls-5" d="M30.64307,33.85916a1.3334,1.3334,0,1,1-1.30113-1.3627,1.32838,1.32838,0,0,1,1.30113,1.3627"/><polygon class="cls-5" points="13.929 41.661 23.683 58.44 13.547 58.208 13.929 41.661"/><polygon class="cls-5" points="34.194 42.122 23.683 58.44 33.816 58.669 34.194 42.122"/><path class="cls-5" d="M13.563,57.68841l20.26318.46068s.81481,4.17764-3.95487,5.53214l-12.75549-.42684a5.5404,5.5404,0,0,1-3.55282-5.566"/><polygon class="cls-3" points="14.146 42.009 23.019 44.643 20.324 46.957 14.146 42.009"/><polygon class="cls-3" points="33.824 42.458 24.839 44.684 27.427 47.119 33.824 42.458"/><polygon class="cls-2" points="22.93 48.492 22.245 54.926 23.71 57.261 25.545 54.613 24.753 48.533 22.93 48.492"/><polygon class="cls-3" points="22.93 48.492 22.245 54.926 23.71 57.261 25.545 54.613 24.753 48.533 22.93 48.492"/><path class="cls-2" d="M20.8593,46.4978s1.29923,1.97638,3.0478,2.01526c1.75886.04119,3.00472-1.87992,3.00472-1.87992L24.839,44.6845l-1.82044-.04013Z"/><path class="cls-3" d="M20.8593,46.4978s1.29923,1.97638,3.0478,2.01526c1.75886.04119,3.00472-1.87992,3.00472-1.87992L24.839,44.6845l-1.82044-.04013Z"/><path class="cls-4" d="M25.45874,44.5315l-.49662-5.30034s-4.12132-.88248-3.838-4.25456c.277-3.375,3.26322-1.78555,3.26322-1.78555l.77593-2.70712,9.289.21458"/><polyline class="cls-2" points="33.196 37.686 35.481 37.428 35.963 36.37 33.311 32.586"/><polyline class="cls-4" points="33.196 37.686 35.481 37.428 35.963 36.37 33.311 32.586"/><g class="cls-7"><g class="cls-8"><path class="cls-5" d="M19.89276,25.747s-3.65538.45563-3.8708,3.82267c-.22172,3.36683-.59518,26.06834-.59518,26.06834a1.4705,1.4705,0,0,0,1.73617,1.69413c1.98479-.10255,16.959.38587,16.959.38587s-1.48187,1.65946-2.24329,1.78261c-2.07705.34572-15.56328-.35413-15.56328-.35413s-3.47464.39112-2.71112-5.683c.70594-5.60192.60948-23.92361.60948-23.92361s-.34278-4.27915,5.67905-3.79283"/></g></g><g class="cls-7"><g class="cls-9"><polygon class="cls-5" points="23.589 48.714 23.458 54.411 24.58 56.004 23.71 57.261 22.245 54.927 22.885 48.934 23.589 48.714"/></g></g><g class="cls-7"><g class="cls-10"><path class="cls-5" d="M22.45613,45.65s-.17654,1.9354,1.605,1.76916c1.77925-.16813,1.6418.05338,1.6418.05338a2.51978,2.51978,0,0,1-1.66849,1.25195c-1.14939.20932-3.17516-2.22669-3.17516-2.22669Z"/></g></g><g class="cls-7"><g class="cls-11"><path class="cls-5" d="M34.13222,28.89235,24.289,28.66769l-.971,2.82713s-2.52029-.30684-3.18735,1.62142c-.669,1.9251-.87828,5.24885,3.30861,7.14641l.68745,4.20938,1.29923-.31819-.45984-4.92351s-4.18058-1.59073-3.842-4.25372c.33248-2.663,3.26322-1.78555,3.26322-1.78555l1.14329-2.69977,8.92168.20722Z"/></g></g><rect class="cls-12" x="80.47981" y="36.42804" width="13.82124" height="21.30919" transform="translate(-6.75432 78.55687) rotate(-46.79978)"/><rect class="cls-4" x="80.47981" y="36.42804" width="13.82124" height="21.30919" transform="translate(-6.75432 78.55687) rotate(-46.79978)"/><path class="cls-2" d="M81.08246,45.336a2.67449,2.67449,0,1,0-.12316-3.78253,2.67217,2.67217,0,0,0,.12316,3.78253"/><circle class="cls-4" cx="82.91215" cy="43.38579" r="2.67449" transform="translate(-5.47083 74.12991) rotate(-46.80219)"/><path class="cls-2" d="M89.79061,63.71108l-9.33612,9.93761a3.17783,3.17783,0,0,1-.40036.5397L68.7866,86.17951a3.1159,3.1159,0,0,1-4.54186-4.267l2.473-2.631-.77172-.7236-4.52546,4.82116a3.11559,3.11559,0,0,1-4.544-4.26381l4.52967-4.82222-.77172-.72549L54.55323,80.045a3.114,3.114,0,1,1-4.53765-4.26591l6.07711-6.47642-.05548-.05423-3.47674,3.69932a3.11518,3.11518,0,1,1-4.54186-4.26486L58.73193,57.27985c-1.77315-1.70758.52142-5.01073.88458-5.178l1.99908-2.12728c1.35262-1.43668,1.85134-2.15923,4.38591-2.83848l5.20492.198.53571-.57165a3.57036,3.57036,0,0,1,5.04667-.157l12.83977,12.063a3.56731,3.56731,0,0,1,.162,5.04268"/><path class="cls-3" d="M89.79061,63.71108l-9.33612,9.93761a3.17783,3.17783,0,0,1-.40036.5397L68.7866,86.17951a3.1159,3.1159,0,0,1-4.54186-4.267l2.473-2.631-.77172-.7236-4.52546,4.82116a3.11559,3.11559,0,0,1-4.544-4.26381l4.52967-4.82222-.77172-.72549L54.55323,80.045a3.114,3.114,0,1,1-4.53765-4.26591l6.07711-6.47642-.05548-.05423-3.47674,3.69932a3.11518,3.11518,0,1,1-4.54186-4.26486L58.73193,57.27985c-1.77315-1.70758.52142-5.01073.88458-5.178l1.99908-2.12728c1.35262-1.43668,1.85134-2.15923,4.38591-2.83848l5.20492.198.53571-.57165a3.57036,3.57036,0,0,1,5.04667-.157l12.83977,12.063A3.56731,3.56731,0,0,1,89.79061,63.71108Z"/><g class="cls-7"><g class="cls-13"><rect class="cls-5" x="85.44543" y="47.90714" width="13.82351" height="7.68017" transform="translate(-8.59142 83.63773) rotate(-46.79343)"/></g></g><g class="cls-7"><g class="cls-14"><path class="cls-5" d="M86.33656,56.63128s4.05133,1.63066-3.0684,9.4328C76.15264,73.86621,64.38429,86.317,64.38429,86.317a3.31018,3.31018,0,0,0,4.65072-.40015c2.274-2.41878,21.0595-22.58445,21.0595-22.58445s2.78909-3.86554-3.75794-6.70108"/></g></g><text class="cls-15" transform="translate(10.83545 99.47266)"><tspan class="cls-16">F</tspan><tspan x="6.17676" y="0">o</tspan><tspan class="cls-17" x="13.61328" y="0">r</tspan><tspan class="cls-18" x="17.90723" y="0">c</tspan><tspan x="23.89453" y="0">ed </tspan><tspan class="cls-19" x="41.19189" y="0">M</tspan><tspan x="52.16309" y="0">a</tspan><tspan class="cls-20" x="58.69189" y="0">rr</tspan><tspan x="67.65869" y="0">iage</tspan></text></svg>