<svg id="Layer_6" data-name="Layer 6" xmlns="http://www.w3.org/2000/svg" viewBox="0 0 113.38583 113.38583"><defs><style>.cls-1,.cls-2,.cls-3{fill:#fff;}.cls-2,.cls-3{stroke:#12110b;stroke-linecap:round;stroke-linejoin:round;}.cls-2{stroke-width:0.52434px;}.cls-3{stroke-width:0.59682px;}.cls-4{fill:#2b2523;}.cls-5{fill:#12110b;opacity:0.2;}.cls-6{font-size:13.54536px;fill:#1d1d1b;font-family:MyriadPro-Regular, Myriad Pro;}.cls-7{letter-spacing:-0.031em;}.cls-8{letter-spacing:-0.00999em;}.cls-9{letter-spacing:-0.00598em;}</style></defs><title>case-06</title><rect class="cls-1" width="113.38583" height="113.38583" rx="14.15184" ry="14.15184"/><polygon class="cls-2" points="79.153 66.168 74.024 77.331 85.451 82.553 94.838 80.039 91.008 71.613 79.153 66.168"/><polygon class="cls-3" points="19.511 48.614 26.055 48.443 22.251 42.648 19.511 48.614"/><path class="cls-3" d="M19.10922,49.48545a.93509.93509,0,0,1-.40126-.34315.95358.95358,0,0,1-.07115-.93l2.74036-5.96638a.96243.96243,0,0,1,1.67665-.12617l3.80207,5.79691a.95906.95906,0,0,1-.77469,1.48685l-6.54906.16926A.92721.92721,0,0,1,19.10922,49.48545ZM22.4,44.62608l-1.3746,2.98628,3.27994-.08529Z" transform="translate(0)"/><circle class="cls-3" cx="69.88761" cy="68.96159" r="5.39802"/><path class="cls-3" d="M69.75984,70.96968a6.92911,6.92911,0,0,1-6.94833,6.91165l-25.4211-.06916A6.936,6.936,0,0,1,30.481,70.86185l.12506-45.4028a6.93054,6.93054,0,0,1,6.95253-6.91143l25.41712.06806a6.93321,6.93321,0,0,1,6.91143,6.95253Z" transform="translate(0)"/><path class="cls-3" d="M30.54792,45.63056s.98615,4.92941,5.42039,4.94024c4.43225.013,28.56515.07866,28.56515.07866s4.16467.74994,5.29753-4.91107" transform="translate(0)"/><line class="cls-3" x1="69.75984" y1="70.96968" x2="30.48097" y2="70.86185"/><path class="cls-3" d="M67.44019,37.60659l6.73444.01834a7.53368,7.53368,0,0,0,1.23871-2.46106c.002-.73779-7.93448-9.72095-7.93448-9.72095" transform="translate(0)"/><path class="cls-3" d="M69.09077,22.32605,54.9442,22.28716s-5.13137.493-4.704,4.74513l-.013,6.83255-2.33467-.00641s.38624-4.98554-3.68121-4.44286c-4.06546.54157-4.4581,9.95937-.02165,10.5279l.03248,9.77818" transform="translate(0)"/><circle class="cls-4" cx="60.75895" cy="29.4611" r="1.65721" transform="translate(31.11975 90.13336) rotate(-89.83193)"/><path class="cls-5" d="M34.71457,59.063V70.87158S36.21644,74.378,39.5545,74.378h29.299s-1.64218,3.25718-4.71707,3.37915c-3.0813.11976-28.25227-.11755-28.25227-.11755a9.7129,9.7129,0,0,1-5.6577-9.213L30.43125,58.3Z" transform="translate(0)"/><rect class="cls-3" x="54.28804" y="30.50707" width="1.20117" height="62.35127" transform="translate(-24.07736 85.80511) rotate(-65.32235)"/><polygon class="cls-5" points="76.658 71.761 94.838 80.039 85.451 82.553 74.024 77.331 76.658 71.761"/><circle class="cls-3" cx="35.94516" cy="54.01083" r="5.3978"/><text class="cls-6" transform="translate(16.11816 99.47461)"><tspan class="cls-7">F</tspan><tspan x="6.17676" y="0">o</tspan><tspan class="cls-8" x="13.61328" y="0">r</tspan><tspan class="cls-9" x="17.90723" y="0">c</tspan><tspan x="23.89453" y="0">ed Labour</tspan></text></svg>