<svg id="Layer_3" data-name="Layer 3" xmlns="http://www.w3.org/2000/svg" xmlns:xlink="http://www.w3.org/1999/xlink" viewBox="0 0 113.38583 113.38583"><defs><style>.cls-1,.cls-4,.cls-7{fill:none;}.cls-2{fill:#fff;}.cls-3{fill:#13120d;}.cls-4,.cls-7{stroke:#13120d;stroke-width:0.5px;}.cls-4{stroke-miterlimit:10;}.cls-5{fill:#df0969;}.cls-6{fill:#2b2523;}.cls-7{stroke-linecap:round;stroke-linejoin:round;}.cls-8{opacity:0.2;}.cls-9{clip-path:url(#clip-path);}.cls-10{clip-path:url(#clip-path-2);}.cls-11{clip-path:url(#clip-path-3);}.cls-12{clip-path:url(#clip-path-4);}.cls-13{clip-path:url(#clip-path-5);}.cls-14{clip-path:url(#clip-path-6);}.cls-15{clip-path:url(#clip-path-7);}.cls-16{clip-path:url(#clip-path-8);}.cls-17{clip-path:url(#clip-path-9);}.cls-18{clip-path:url(#clip-path-10);}.cls-19{clip-path:url(#clip-path-11);}.cls-20{font-size:13.54536px;fill:#1d1d1b;font-family:MyriadPro-Regular, Myriad Pro;}</style><clipPath id="clip-path" transform="translate(0 0)"><polygon class="cls-1" points="77.502 65.589 96.531 63.856 93.878 34.506 74.854 36.228 77.502 65.589"/></clipPath><clipPath id="clip-path-2" transform="translate(0 0)"><polygon class="cls-1" points="47.194 68.33 66.226 66.608 63.576 37.247 44.54 38.978 47.194 68.33"/></clipPath><clipPath id="clip-path-3" transform="translate(0 0)"><rect class="cls-1" x="65.575" y="54.53739" width="6.20183" height="5.73609" transform="translate(-4.89981 6.43115) rotate(-5.17712)"/></clipPath><clipPath id="clip-path-4" transform="translate(0 0)"><rect class="cls-1" x="95.85263" y="51.79078" width="6.19008" height="5.73613" transform="translate(-4.54141 9.18092) rotate(-5.19341)"/></clipPath><clipPath id="clip-path-5" transform="translate(0 0)"><polygon class="cls-1" points="56.504 53.13 65.623 52.3 64.518 40.023 55.401 40.855 56.504 53.13"/></clipPath><clipPath id="clip-path-6" transform="translate(0 0)"><rect class="cls-1" x="82.47234" y="38.05627" width="13.00932" height="13.00441" transform="translate(-3.65588 8.20586) rotate(-5.17418)"/></clipPath><clipPath id="clip-path-7" transform="translate(0 0)"><rect class="cls-1" x="66.25267" y="50.69419" width="2.00543" height="4.12942" transform="translate(-4.48338 6.27947) rotate(-5.17349)"/></clipPath><clipPath id="clip-path-8" transform="translate(0 0)"><rect class="cls-1" x="66.79042" y="60.01888" width="1.92037" height="2.07825" transform="translate(-5.17899 6.29032) rotate(-5.1204)"/></clipPath><clipPath id="clip-path-9" transform="translate(0 0)"><rect class="cls-1" x="96.51867" y="47.94935" width="2.00399" height="4.12797" transform="translate(-4.12523 9.02887) rotate(-5.19126)"/></clipPath><clipPath id="clip-path-10" transform="translate(0 0)"><rect class="cls-1" x="97.06764" y="57.26924" width="1.91821" height="2.07769" transform="translate(-4.84836 9.05579) rotate(-5.1618)"/></clipPath><clipPath id="clip-path-11" transform="translate(0 0)"><rect class="cls-1" x="12.00286" y="47.06512" width="11.42186" height="20.62542" transform="translate(-5.10729 1.83332) rotate(-5.17926)"/></clipPath></defs><title>case-03</title><rect class="cls-2" width="113.38583" height="113.38583" rx="14.15184" ry="14.15184"/><path class="cls-3" d="M21.31491,49.96585a1.37732,1.37732,0,0,1-1.24573,1.49236l-4.17465.37686a1.37243,1.37243,0,0,1-1.492-1.24313l-.38117-4.23709a1.37666,1.37666,0,0,1,1.24674-1.49676l4.169-.37623a1.376,1.376,0,0,1,1.49552,1.24838Z" transform="translate(0 0)"/><path class="cls-4" d="M21.31491,49.96585a1.37732,1.37732,0,0,1-1.24573,1.49236l-4.17465.37686a1.37243,1.37243,0,0,1-1.492-1.24313l-.38117-4.23709a1.37666,1.37666,0,0,1,1.24674-1.49676l4.169-.37623a1.376,1.376,0,0,1,1.49552,1.24838Z" transform="translate(0 0)"/><path class="cls-3" d="M28.45795,51.89286a1.3763,1.3763,0,0,1-1.247,1.494l-4.16967.37677a1.37174,1.37174,0,0,1-1.49236-1.24573L21.166,48.2831a1.374,1.374,0,0,1,1.24386-1.49636L26.58,46.409a1.37781,1.37781,0,0,1,1.49564,1.24822Z" transform="translate(0 0)"/><path class="cls-4" d="M28.45795,51.89286a1.3763,1.3763,0,0,1-1.247,1.494l-4.16967.37677a1.37174,1.37174,0,0,1-1.49236-1.24573L21.166,48.2831a1.374,1.374,0,0,1,1.24386-1.49636L26.58,46.409a1.37781,1.37781,0,0,1,1.49564,1.24822Z" transform="translate(0 0)"/><path class="cls-3" d="M35.26884,50.14994a1.37644,1.37644,0,0,1-1.2451,1.498l-4.17013.37771a1.37849,1.37849,0,0,1-1.49666-1.25028l-.37963-4.23231a1.37134,1.37134,0,0,1,1.24658-1.49688l4.168-.378a1.37768,1.37768,0,0,1,1.495,1.249Z" transform="translate(0 0)"/><path class="cls-4" d="M35.26884,50.14994a1.37644,1.37644,0,0,1-1.2451,1.498l-4.17013.37771a1.37849,1.37849,0,0,1-1.49666-1.25028l-.37963-4.23231a1.37134,1.37134,0,0,1,1.24658-1.49688l4.168-.378a1.37768,1.37768,0,0,1,1.495,1.249Z" transform="translate(0 0)"/><path class="cls-3" d="M39.82152,53.25584A1.38032,1.38032,0,0,1,38.57658,54.754l-4.174.376A1.37673,1.37673,0,0,1,32.909,53.8821l-.38127-4.23355a1.37952,1.37952,0,0,1,1.24408-1.50007l4.174-.376a1.37879,1.37879,0,0,1,1.49489,1.2492Z" transform="translate(0 0)"/><path class="cls-4" d="M39.82152,53.25584A1.38032,1.38032,0,0,1,38.57658,54.754l-4.174.376A1.37673,1.37673,0,0,1,32.909,53.8821l-.38127-4.23355a1.37952,1.37952,0,0,1,1.24408-1.50007l4.174-.376a1.37879,1.37879,0,0,1,1.49489,1.2492Z" transform="translate(0 0)"/><path class="cls-3" d="M30.54591,46.37714a1.37551,1.37551,0,0,1-1.24624,1.4961l-4.16849.379a1.38,1.38,0,0,1-1.49778-1.2488l-.38455-4.236a1.38409,1.38409,0,0,1,1.24822-1.49564l4.17052-.37483a1.37545,1.37545,0,0,1,1.49528,1.24562Z" transform="translate(0 0)"/><path class="cls-4" d="M30.54591,46.37714a1.37551,1.37551,0,0,1-1.24624,1.4961l-4.16849.379a1.38,1.38,0,0,1-1.49778-1.2488l-.38455-4.236a1.38409,1.38409,0,0,1,1.24822-1.49564l4.17052-.37483a1.37545,1.37545,0,0,1,1.49528,1.24562Z" transform="translate(0 0)"/><path class="cls-3" d="M20.39236,43.27556h4.18831a1.37771,1.37771,0,0,1,1.37771,1.37771v4.24885a1.37943,1.37943,0,0,1-1.37943,1.37943H20.39372a1.37645,1.37645,0,0,1-1.37645-1.37645V44.65064a1.37508,1.37508,0,0,1,1.37508-1.37508Z" transform="translate(-4.12135 2.21526) rotate(-5.16688)"/><path class="cls-4" d="M20.39236,43.27556h4.18831a1.37771,1.37771,0,0,1,1.37771,1.37771v4.24885a1.37943,1.37943,0,0,1-1.37943,1.37943H20.39372a1.37645,1.37645,0,0,1-1.37645-1.37645V44.65064a1.37508,1.37508,0,0,1,1.37508-1.37508Z" transform="translate(-4.12135 2.21526) rotate(-5.16688)"/><path class="cls-5" d="M33.70574,65.60364c-1.01333,1.55525-2.31443,2.46191-3.83075,2.24532L16.16275,65.84949a4.06959,4.06959,0,0,1-3.14289-3.25773L11.285,49.66878a2.20364,2.20364,0,0,1,2.62907-2.41751l25.02526,3.64194c1.51371.22,1.882,2.30878,1.48728,3.01866Z" transform="translate(0 0)"/><path class="cls-4" d="M33.70574,65.60364c-1.01333,1.55525-2.31443,2.46191-3.83075,2.24532L16.16275,65.84949a4.06959,4.06959,0,0,1-3.14289-3.25773L11.285,49.66878a2.20364,2.20364,0,0,1,2.62907-2.41751l25.02526,3.64194c1.51371.22,1.882,2.30878,1.48728,3.01866Z" transform="translate(0 0)"/><path class="cls-5" d="M86.14291,58.47392a1.09444,1.09444,0,0,1-1.2297.93551L29.07474,51.865a1.09015,1.09015,0,1,1,.29412-2.16036l55.83733,7.54258a1.09021,1.09021,0,0,1,.93672,1.22675" transform="translate(0 0)"/><path class="cls-4" d="M86.14291,58.47392a1.09444,1.09444,0,0,1-1.2297.93551L29.07474,51.865a1.09015,1.09015,0,1,1,.29412-2.16036l55.83733,7.54258A1.09021,1.09021,0,0,1,86.14291,58.47392Z" transform="translate(0 0)"/><path class="cls-3" d="M34.38929,64.01783a5.70959,5.70959,0,1,1-6.2022-5.17269,5.71159,5.71159,0,0,1,6.2022,5.17269" transform="translate(0 0)"/><circle class="cls-4" cx="28.703" cy="64.53275" r="5.70959" transform="translate(-5.70345 2.85185) rotate(-5.17474)"/><path class="cls-2" d="M32.32659,64.2053A3.6379,3.6379,0,1,1,28.37528,60.912a3.63689,3.63689,0,0,1,3.95131,3.29331" transform="translate(0 0)"/><circle class="cls-4" cx="28.70308" cy="64.53436" r="3.6379" transform="translate(-5.70916 2.85496) rotate(-5.17991)"/><path class="cls-2" d="M64.64686,40.678a3.47054,3.47054,0,0,0-3.75923-3.15378L48.22379,38.643a3.46842,3.46842,0,0,0-3.1537,3.76084l1.98169,22.61876,19.56644-1.71869Z" transform="translate(0 0)"/><path class="cls-4" d="M64.64686,40.678a3.47054,3.47054,0,0,0-3.75923-3.15378L48.22379,38.643a3.46842,3.46842,0,0,0-3.1537,3.76084l1.98169,22.61876,19.56644-1.71869Z" transform="translate(0 0)"/><path class="cls-2" d="M47.05178,65.02263h0a3.4696,3.4696,0,0,0,3.7555,3.15223L63.4691,67.0618a3.46036,3.46036,0,0,0,3.14912-3.75786Z" transform="translate(0 0)"/><path class="cls-4" d="M47.05178,65.02263h0a3.4696,3.4696,0,0,0,3.7555,3.15223L63.4691,67.0618a3.46036,3.46036,0,0,0,3.14912-3.75786Z" transform="translate(0 0)"/><path class="cls-6" d="M63.02449,43.61463a.83077.83077,0,1,1-.901-.75179.83189.83189,0,0,1,.901.75179" transform="translate(0 0)"/><path class="cls-2" d="M64.63325,47.55417a1.42142,1.42142,0,0,0,1.30915-1.46595c-.03162-1.34857-1.58185-1.56712-1.58185-1.56712" transform="translate(0 0)"/><path class="cls-4" d="M64.63325,47.55417a1.42142,1.42142,0,0,0,1.30915-1.46595c-.03162-1.34857-1.58185-1.56712-1.58185-1.56712" transform="translate(0 0)"/><path class="cls-2" d="M68.90522,49.35713l-.23143.02235a.87949.87949,0,0,0,.031-.29693.77239.77239,0,0,0-1.53855.13864.70239.70239,0,0,0,.08306.28628l-.23319.02127a.87977.87977,0,0,0-.66749,1.02279l.63484,7.04254a.873.873,0,0,0,.83782.88813L69.7135,58.313a.88091.88091,0,0,0,.66709-1.02568l-.636-7.04106a.87807.87807,0,0,0-.83942-.88909" transform="translate(0 0)"/><path class="cls-7" d="M68.90522,49.35713l-.23143.02235a.87949.87949,0,0,0,.031-.29693.77239.77239,0,0,0-1.53855.13864.70239.70239,0,0,0,.08306.28628l-.23319.02127a.87977.87977,0,0,0-.66749,1.02279l.63484,7.04254a.873.873,0,0,0,.83782.88813L69.7135,58.313a.88091.88091,0,0,0,.66709-1.02568l-.636-7.04106A.87807.87807,0,0,0,68.90522,49.35713Z" transform="translate(0 0)"/><path class="cls-2" d="M71.17776,60.54049a1.14019,1.14019,0,0,1-.866,1.32772l-2.44468.222A1.13624,1.13624,0,0,1,66.7784,60.9373L65.95723,51.819a1.14207,1.14207,0,0,1,.86443-1.32868l2.4474-.22247a1.13749,1.13749,0,0,1,1.08775,1.15064Z" transform="translate(0 0)"/><path class="cls-4" d="M71.17776,60.54049a1.14019,1.14019,0,0,1-.866,1.32772l-2.44468.222A1.13624,1.13624,0,0,1,66.7784,60.9373L65.95723,51.819a1.14207,1.14207,0,0,1,.86443-1.32868l2.4474-.22247a1.13749,1.13749,0,0,1,1.08775,1.15064Z" transform="translate(0 0)"/><path class="cls-2" d="M68.35239,54.37942a3.04349,3.04349,0,1,1-2.70355,3.35043,3.03823,3.03823,0,0,1,2.70355-3.35043" transform="translate(0 0)"/><path class="cls-4" d="M68.35239,54.37942a3.04349,3.04349,0,1,1-2.70355,3.35043A3.03823,3.03823,0,0,1,68.35239,54.37942Z" transform="translate(0 0)"/><path class="cls-2" d="M94.91161,37.9364a3.46942,3.46942,0,0,0-3.75736-3.14977L78.49153,35.89746A3.467,3.467,0,0,0,75.34032,39.655L77.3184,62.27854l19.57117-1.72492Z" transform="translate(0 0)"/><path class="cls-4" d="M94.91161,37.9364a3.46942,3.46942,0,0,0-3.75736-3.14977L78.49153,35.89746A3.467,3.467,0,0,0,75.34032,39.655L77.3184,62.27854l19.57117-1.72492Z" transform="translate(0 0)"/><path class="cls-2" d="M77.3184,62.27854h0a3.47081,3.47081,0,0,0,3.75815,3.15554l12.66429-1.11972a3.46452,3.46452,0,0,0,3.14872-3.76075Z" transform="translate(0 0)"/><path class="cls-4" d="M77.3184,62.27854h0a3.47081,3.47081,0,0,0,3.75815,3.15554l12.66429-1.11972a3.46452,3.46452,0,0,0,3.14872-3.76075Z" transform="translate(0 0)"/><path class="cls-4" d="M76.22146,49.70207s.71278,2.4132,2.91941,2.2189c2.20659-.19458,14.232-1.25016,14.232-1.25016s2.10908.187,2.41651-2.686" transform="translate(0 0)"/><path class="cls-6" d="M93.28986,40.87219a.82972.82972,0,1,1-.90079-.75167.82855.82855,0,0,1,.90079.75167" transform="translate(0 0)"/><path class="cls-2" d="M94.90077,44.81231a1.425,1.425,0,0,0,1.30751-1.46719c-.03336-1.34627-1.58111-1.56811-1.58111-1.56811" transform="translate(0 0)"/><path class="cls-4" d="M94.90077,44.81231a1.425,1.425,0,0,0,1.30751-1.46719c-.03336-1.34627-1.58111-1.56811-1.58111-1.56811" transform="translate(0 0)"/><path class="cls-4" d="M86.9193,51.23749l-.34609-3.85079s-2.73644-.2051-2.9483-2.5398c-.212-2.33482,2.49243-2.49353,2.49243-2.49353l-.15053-1.65094s.14181-1.42422,1.30963-1.52992l7.68274-.69666" transform="translate(0 0)"/><path class="cls-2" d="M99.17286,46.61511l-.23421.0192a.67719.67719,0,0,0,.02985-.29545.77053.77053,0,1,0-1.53465.14031.73447.73447,0,0,0,.08192.28438l-.23228.02041a.88086.88086,0,0,0-.66811,1.02361l.63868,7.04054a.88086.88086,0,0,0,.84093.8905l1.88587-.17409a.882.882,0,0,0,.67037-1.02319l-.6393-7.03972a.8761.8761,0,0,0-.83906-.88649" transform="translate(0 0)"/><path class="cls-7" d="M99.17286,46.61511l-.23421.0192a.67719.67719,0,0,0,.02985-.29545.77053.77053,0,1,0-1.53465.14031.73447.73447,0,0,0,.08192.28438l-.23228.02041a.88086.88086,0,0,0-.66811,1.02361l.63868,7.04054a.88086.88086,0,0,0,.84093.8905l1.88587-.17409a.882.882,0,0,0,.67037-1.02319l-.6393-7.03972A.8761.8761,0,0,0,99.17286,46.61511Z" transform="translate(0 0)"/><path class="cls-2" d="M101.45075,57.79141a1.14374,1.14374,0,0,1-.86777,1.33l-2.44508.21907a1.13381,1.13381,0,0,1-1.087-1.15133l-.82517-9.11645a1.13351,1.13351,0,0,1,.86478-1.32608l2.44514-.2229a1.13726,1.13726,0,0,1,1.08927,1.152Z" transform="translate(0 0)"/><path class="cls-4" d="M101.45075,57.79141a1.14374,1.14374,0,0,1-.86777,1.33l-2.44508.21907a1.13381,1.13381,0,0,1-1.087-1.15133l-.82517-9.11645a1.13351,1.13351,0,0,1,.86478-1.32608l2.44514-.2229a1.13726,1.13726,0,0,1,1.08927,1.152Z" transform="translate(0 0)"/><path class="cls-2" d="M98.6224,51.63428a3.04129,3.04129,0,1,1-2.70106,3.34715,3.04,3.04,0,0,1,2.70106-3.34715" transform="translate(0 0)"/><circle class="cls-4" cx="98.94629" cy="54.65812" r="3.04232" transform="translate(-5.25643 10.84406) rotate(-6.11108)"/><path class="cls-7" d="M64.63077,41.22475l-6.98616.63342s3.01653,7.18288,1.67125,11.01475l-13.2246,1.19952" transform="translate(0 0)"/><path class="cls-7" d="M55.41854,53.22686s5.82347,3.25377,10.44307,1.409" transform="translate(0 0)"/><g class="cls-8"><g class="cls-9"><path class="cls-3" d="M80.12569,35.766s-3.31054.77124-3.17149,3.72435c.13338,2.95036,2.05134,22.73983,2.05134,22.73983s.014,2.35612,1.82847,2.06355c1.81068-.29807,15.60923-1.419,15.60923-1.419a10.21134,10.21134,0,0,1-1.95136,1.01512c-1.87426.51469-14.32175,1.302-14.32175,1.302s-3.15436.70162-3.05692-4.66489c.09017-4.94823-1.824-20.87787-1.824-20.87787s-.73868-3.68585,4.83643-3.88311" transform="translate(0 0)"/></g></g><g class="cls-8"><g class="cls-10"><path class="cls-3" d="M49.81967,38.51533s-3.31064.77478-3.17686,3.728c.13515,2.95144,2.05468,22.732,2.05468,22.732s.012,2.29908,1.82437,2.00255C52.33457,66.684,66.12574,65.566,66.12574,65.566a9.5505,9.5505,0,0,1-1.94184,1.0792c-1.87564.51-14.32267,1.28992-14.32267,1.28992s-3.14809.70017-3.0538-4.66252c.08781-4.94512-1.82894-20.87131-1.82894-20.87131s-.73682-3.68831,4.84118-3.886" transform="translate(0 0)"/></g></g><g class="cls-8"><g class="cls-11"><path class="cls-3" d="M67.17215,54.66122s-1.55709,2.7174.969,3.87817a2.71114,2.71114,0,0,0,3.67605-.82079s-1.35912,3.81026-4.73157,2.12206c-3.37121-1.68984.08652-5.17944.08652-5.17944" transform="translate(0 0)"/></g></g><g class="cls-8"><g class="cls-12"><path class="cls-3" d="M97.44114,51.914s-1.55421,2.717.96962,3.87735a2.70807,2.70807,0,0,0,3.675-.819s-1.35617,3.806-4.72761,2.1199c-3.37281-1.6908.083-5.17822.083-5.17822" transform="translate(0 0)"/></g></g><g class="cls-8"><g class="cls-13"><path class="cls-3" d="M64.52168,40.02154l-9.12422.83065s4.208,8.52587,2.72,12.12988l1.19773-.10834s1.228-4.808-1.67063-11.01557l6.988-.63588Z" transform="translate(0 0)"/></g></g><g class="cls-8"><g class="cls-14"><path class="cls-3" d="M94.84414,37.51311l-8.26162.74816s-1.929-.07829-1.81663,1.54629a11.89478,11.89478,0,0,0,.1459,1.62366,2.9683,2.9683,0,0,0-2.46629,3.1542c.24233,2.66066,3.09941,3.83406,3.09941,3.83406l.26636,2.95151,1.03282-.99548-.27089-2.9888a3.13971,3.13971,0,0,1-2.9483-2.5398c-.46234-2.47047,2.49243-2.49353,2.49243-2.49353l-.15115-1.65012s.56833-1.46393,1.30878-1.53186c.74344-.06541,7.67744-.76631,7.67744-.76631Z" transform="translate(0 0)"/></g></g><g class="cls-8"><g class="cls-15"><path class="cls-3" d="M68.06278,50.61051s-1.02466.34921-.9509,1.18994l.24352,2.66931-.91373.436L66.14536,51.601s.06191-.82.5124-.86164Z" transform="translate(0 0)"/></g></g><g class="cls-8"><g class="cls-16"><path class="cls-3" d="M67.95252,60.52733s-.25857,1.21574.84977,1.47758l-.93525.08526s-1.00572-.21421-1.047-.68224l-.1173-1.29523Z" transform="translate(0 0)"/></g></g><g class="cls-8"><g class="cls-17"><path class="cls-3" d="M98.33155,47.867s-1.02466.34921-.94588,1.19014L97.626,51.7238l-.91085.43556L96.411,48.85513s.06253-.82079.514-.8604Z" transform="translate(0 0)"/></g></g><g class="cls-8"><g class="cls-18"><path class="cls-3" d="M98.22551,57.77826s-.26133,1.216.8478,1.47711l-.93491.08448s-1.00408-.213-1.04536-.681l-.11668-1.29605Z" transform="translate(0 0)"/></g></g><g class="cls-8"><g class="cls-19"><path class="cls-3" d="M15.20253,47.43889s-2.73133.10421-2.37953,2.61072c.34563,2.50441,1.59054,12.26853,1.59054,12.26853A3.82781,3.82781,0,0,0,16.75782,64.633c1.64124.36461,7.41977.80722,7.41977.80722l-.52439,1.75205-7.49045-1.34277s-2.89918-1.44385-3.14289-3.25773c-.24111-1.81424-1.73545-12.92216-1.73545-12.92216s.00613-2.79877,3.91812-2.23071" transform="translate(0 0)"/></g></g><text class="cls-20" transform="translate(20.58838 96.86328)">Child Labour</text></svg>