<svg id="Layer_4" data-name="Layer 4" xmlns="http://www.w3.org/2000/svg" viewBox="0 0 113.38583 113.38583"><defs><style>.cls-1,.cls-2{fill:#fff;}.cls-2,.cls-3,.cls-4,.cls-5,.cls-7{stroke:#12110b;stroke-width:0.4846px;}.cls-2,.cls-3,.cls-4,.cls-7{stroke-miterlimit:10;}.cls-3,.cls-5{fill:none;}.cls-4{fill:#3baae1;}.cls-5{stroke-linecap:round;stroke-linejoin:round;}.cls-6{fill:#2b2523;}.cls-7{fill:#30ab66;}.cls-8{font-size:13.03934px;font-family:Helvetica-Bold, Helvetica;font-weight:700;}.cls-8,.cls-9{fill:#12110b;}.cls-9{opacity:0.2;}.cls-10{font-size:13.54536px;fill:#1d1d1b;font-family:MyriadPro-Regular, Myriad Pro;}.cls-11{letter-spacing:-0.031em;}.cls-12{letter-spacing:-0.00999em;}.cls-13{letter-spacing:-0.00598em;}.cls-14{letter-spacing:0.004em;}.cls-15{letter-spacing:-0.00602em;}.cls-16{letter-spacing:0.00004em;}</style></defs><title>case 04</title><rect class="cls-1" width="113.38583" height="113.38583" rx="14.15184" ry="14.15184"/><path class="cls-2" d="M58.17913,73.294a7.41368,7.41368,0,0,1-7.43458,7.39048L23.5746,80.61026a7.40669,7.40669,0,0,1-7.39048-7.43316l.13419-48.5334a7.405,7.405,0,0,1,7.43221-7.39048l27.17019.07516A7.41322,7.41322,0,0,1,58.311,24.75822Z" transform="translate(0 0)"/><path class="cls-3" d="M16.256,46.20844s1.05338,5.265,5.79275,5.27661c4.73724.01375,30.53659.088,30.53659.088s4.45463.80112,5.66567-5.25006" transform="translate(0 0)"/><line class="cls-4" x1="58.17913" y1="73.29399" x2="16.18412" y2="73.1771"/><path class="cls-2" d="M55.69706,37.62446l7.19607.02181a8.04347,8.04347,0,0,0,1.32437-2.6255c0-.79282-8.488-10.39461-8.488-10.39461" transform="translate(0 0)"/><path class="cls-5" d="M57.45673,21.29224,42.34,21.24933s-5.49189.528-5.02886,5.073l-.02086,7.307-2.49107-.0045s.41206-5.33233-3.93612-4.75455c-4.34581.5811-4.76948,10.65043-.03248,11.25571l.04173,10.45128" transform="translate(0 0)"/><path class="cls-6" d="M50.32325,28.92692a1.77235,1.77235,0,1,1-1.76891-1.77934A1.77783,1.77783,0,0,1,50.32325,28.92692Z" transform="translate(0 0)"/><path class="cls-2" d="M59.03122,64.36386V66.8042A13.79047,13.79047,0,0,0,72.82329,80.5894h6.50852A13.78121,13.78121,0,0,0,93.11463,66.8042V64.36386Z" transform="translate(0 0)"/><path class="cls-3" d="M31.26832,57.55685v6.44569a4.85543,4.85543,0,0,1-4.85294,4.85294h0a4.85437,4.85437,0,0,1-4.85507-4.85294V57.75245" transform="translate(0 0)"/><line class="cls-3" x1="21.56031" y1="64.00254" x2="30.87238" y2="65.92081"/><line class="cls-3" x1="24.56325" y1="64.61731" x2="31.26832" y2="62.29741"/><line class="cls-3" x1="21.56031" y1="60.32722" x2="30.87238" y2="60.32722"/><path class="cls-7" d="M95.39067,44.03435a9.33536,9.33536,0,1,1-1.75729-13.08152A9.32969,9.32969,0,0,1,95.39067,44.03435Z" transform="translate(0 0)"/><text class="cls-8" transform="translate(82.72745 39.63505) rotate(37.3411)">$</text><path class="cls-9" d="M27.48749,17.35612s-7.24918,1.00952-7.53178,7.36867c-.28024,6.3601,0,49.18965,0,49.18965s-.41443,3.40125,3.5262,3.121c3.94774-.27905,33.76192,0,33.76192,0s-2.88037,3.19285-4.37615,3.46147c-4.121.73616-30.98326,0-30.98326,0s-6.90184.88552-5.65405-10.60752c1.15319-10.59258.13206-45.14281.13206-45.14281S15.48708,16.69394,27.48749,17.35612Z" transform="translate(0 0)"/><path class="cls-9" d="M34.93582,33.95815s-.19228-3.16748-2.68359-3.16748c-2.48657.00711-3.82469,7.284.579,8.05266V49.47171H57.24382s-1.53277,2.27959-3.35265,2.24024c-1.81514-.03936-22.59512.00213-22.59512.00213l.10195-11.485s-4.39915-.96091-3.20684-7.25605C29.38134,26.68337,35.89649,28.50206,34.93582,33.95815Z" transform="translate(0 0)"/><path class="cls-9" d="M22.00935,58.49927l1.72718.57067v5.889a2.80247,2.80247,0,0,0,2.67885,1.96213c2.20183.096,4.457-1.96213,4.457-1.96213s-.33809,4.01341-5.03573,3.89653c-4.68864-.11-4.27634-3.89653-4.27634-3.89653Z" transform="translate(0 0)"/><path class="cls-9" d="M63.27745,64.61731V68.859s1.34049,8.78645,8.71485,8.78645H88.58366L80.79724,80.5894l-10.33771.09507S60.44805,77.79485,59.32284,69.63123c-1.116-8.16623-.29162-4.67228-.29162-4.67228Z" transform="translate(0 0)"/><text class="cls-10" transform="translate(12.3457 96.86328)"><tspan class="cls-11">F</tspan><tspan x="6.17676" y="0">o</tspan><tspan class="cls-12" x="13.61328" y="0">r</tspan><tspan class="cls-13" x="17.90723" y="0">c</tspan><tspan x="23.89453" y="0">ed </tspan><tspan class="cls-14" x="41.19189" y="0">B</tspan><tspan x="48.5874" y="0">eg</tspan><tspan class="cls-15" x="62.94531" y="0">g</tspan><tspan class="cls-16" x="70.43506" y="0">ing</tspan></text></svg>