<svg id="Layer_5" data-name="Layer 5" xmlns="http://www.w3.org/2000/svg" viewBox="0 0 113.38583 113.38583"><defs><style>.cls-1,.cls-4,.cls-7{fill:#fff;}.cls-2{fill:#30ab66;}.cls-12,.cls-2,.cls-3,.cls-4,.cls-7,.cls-8,.cls-9{stroke:#12110b;}.cls-10,.cls-12,.cls-2,.cls-3,.cls-7,.cls-8,.cls-9{stroke-miterlimit:10;}.cls-10,.cls-12,.cls-2,.cls-3,.cls-4,.cls-7,.cls-8,.cls-9{stroke-width:0.5px;}.cls-3{fill:#026732;}.cls-4{stroke-linecap:round;stroke-linejoin:round;}.cls-11,.cls-12,.cls-5,.cls-6{fill:#12110b;}.cls-6{opacity:0.3;}.cls-10,.cls-8{fill:none;}.cls-9{fill:#3baae1;}.cls-10{stroke:#2b2523;}.cls-11{opacity:0.2;}.cls-13{font-size:13.54536px;fill:#1d1d1b;font-family:MyriadPro-Regular, Myriad Pro;}.cls-14{letter-spacing:0.00598em;}.cls-15{letter-spacing:-0.00299em;}</style></defs><title>case-05</title><rect class="cls-1" width="113.38583" height="113.38583" rx="14.15184" ry="14.15184"/><path class="cls-2" d="M25.46825,61.76234a3.36138,3.36138,0,0,0,3.36183,3.36056H48.03554a3.36262,3.36262,0,0,0,3.36423-3.36056l-2.5596-20.04712a3.36348,3.36348,0,0,0-3.3617-3.36676H31.65986a3.36375,3.36375,0,0,0-3.363,3.36676Z"/><path class="cls-3" d="M44.1308,26.40944a1.404,1.404,0,0,0-1.40441-1.40567H34.70449a1.40371,1.40371,0,0,0-1.40327,1.40567l1.07,8.37121a1.40282,1.40282,0,0,0,1.402,1.40314H41.5453a1.40487,1.40487,0,0,0,1.40441-1.40314Z"/><rect class="cls-4" x="35.04014" y="35.91727" width="7.353" height="2.4312"/><path class="cls-5" d="M37.32146,62.30664v-2.3411a6.75688,6.75688,0,0,1-3.54634-1.01947l.55605-1.55252a6.18593,6.18593,0,0,0,3.33769.996c1.64578,0,2.75826-.95034,2.75826-2.27083,0-1.27487-.904-2.06345-2.61937-2.75826-2.364-.9281-3.824-1.99432-3.824-4.01089a3.80093,3.80093,0,0,1,3.5-3.73084V43.2776h1.4365v2.24859A6.18314,6.18314,0,0,1,41.934,46.337L41.354,47.86615a5.60281,5.60281,0,0,0-2.91989-.78744c-1.78517,0-2.45724,1.06635-2.45724,1.99319,0,1.20574.85771,1.80792,2.8744,2.64225,2.38735.97372,3.59246,2.17946,3.59246,4.24165a4.03146,4.03146,0,0,1-3.66222,3.94063v2.41022Z"/><path class="cls-6" d="M43.6593,38.8359s2.68054.55542,2.98915,2.75952c.311,2.20423,2.89032,19.1611,2.89032,19.1611s.36282,2.61268-2.08822,2.6214c-2.45092.01226-21.31706.3838-21.31706.3838a3.132,3.132,0,0,0,2.16089,1.36119H48.03554s3.55682-.56022,3.33466-2.94087C51.15055,59.79886,48.702,40.76122,48.702,40.76122s-.88121-2.41275-2.05359-2.41275A14.95164,14.95164,0,0,0,43.6593,38.8359Z"/><path class="cls-5" d="M43.82965,34.70533a1.03381,1.03381,0,0,1-1.03046,1.03413H34.33181a1.03311,1.03311,0,0,1-1.03059-1.03413h0a1.03028,1.03028,0,0,1,1.03059-1.02806h8.46738a1.031,1.031,0,0,1,1.03046,1.02806Z"/><circle class="cls-7" cx="63.95623" cy="24.23217" r="8.726"/><path class="cls-7" d="M45.98609,75.40568a6.33869,6.33869,0,0,0,6.3612,6.323L75.602,81.667a6.346,6.346,0,0,0,6.32283-6.3612L81.81026,33.7716a6.34289,6.34289,0,0,0-6.35834-6.32433l-23.25754.06321a6.34387,6.34387,0,0,0-6.323,6.3597Z"/><path class="cls-8" d="M81.86023,60.51617s-.90257,4.50925-4.9561,4.51813c-4.05368.01475-26.13247.07345-26.13247.07345s-3.80956.688-4.84728-4.49149"/><line class="cls-9" x1="45.98609" y1="75.40568" x2="81.92479" y2="75.30575"/><circle class="cls-7" cx="72.05094" cy="46.41714" r="1.51679" transform="translate(-0.13556 0.2111) rotate(-0.16771)"/><circle class="cls-7" cx="55.17507" cy="46.41714" r="1.51679" transform="translate(-0.13563 0.1617) rotate(-0.16771)"/><path class="cls-10" d="M81.84247,46.416c-1.14925.00888-18.35728-3.69653-22.28754-18.92618"/><path class="cls-10" d="M63.00012,34.93123s-2.05182,9.18165-17.12871,9.96954"/><path class="cls-8" d="M81.92479,70.01974s0,3.93673-5.65263,3.93673H65.0548"/><path class="cls-11" d="M72.16852,27.47812s6.22891.87157,6.47288,6.33908c.244,5.466,0,42.28516,0,42.28516S79,79.03012,75.60784,78.78916c-3.38935-.24412-29.022,0-29.022,0S46.76208,81.514,50.3513,81.761c3.58922.24683,26.63214,0,26.63214,0s4.89439.0441,4.859-9.11844c-.03221-9.16043-.11453-38.80927-.11453-38.80927S82.48632,26.90937,72.16852,27.47812Z"/><circle class="cls-7" cx="68.06341" cy="75.40553" r="5.03854"/><path class="cls-11" d="M70.30483,70.89282s2.9425,4.20719-1.00823,6.4795c-3.9566,2.27216-6.13184-.79963-6.13184-.79963s2.78071,6.02317,8.04549,2.76611C76.47489,76.07889,70.30483,70.89282,70.30483,70.89282Z"/><path class="cls-11" d="M61.03062,32.43121s-.85531,9.25073-15.04453,11.54652l.59976.923s12.20482-.28521,16.41427-9.4345Z"/><path class="cls-11" d="M65.0548,15.57882S73.53841,20.072,68.7292,27.02977h3.32463S75.06979,18.26261,65.0548,15.57882Z"/><circle class="cls-7" cx="58.80617" cy="77.02537" r="5.03763"/><path class="cls-11" d="M60.8601,72.31915s2.94551,4.20659-1.00823,6.47875c-3.95359,2.27231-6.129-.79662-6.129-.79662s2.78086,6.02317,8.04549,2.76611C67.03016,77.50446,60.8601,72.31915,60.8601,72.31915Z"/><path class="cls-4" d="M78.52385,38.666s3.27452,6.63888,0,6.64776C75.24919,45.32113,78.52385,38.666,78.52385,38.666Z"/><path class="cls-4" d="M86.90738,54.58721s3.27753,6.64039,0,6.64927C83.63557,61.24521,86.90738,54.58721,86.90738,54.58721Z"/><path class="cls-4" d="M77.06577,61.81261s3.27753,6.64039,0,6.64912C73.7911,68.47061,77.06577,61.81261,77.06577,61.81261Z"/><path class="cls-4" d="M88.36245,75.30575s3.27753,6.64039,0,6.64927C85.09065,81.96374,88.36245,75.30575,88.36245,75.30575Z"/><path class="cls-7" d="M21.97889,66.64514a17.24988,17.24988,0,0,1,7.65749-11.27892L47.02381,71.48144,24.889,79.962A17.25108,17.25108,0,0,1,21.97889,66.64514Z"/><path class="cls-12" d="M38.752,69.88459a5.68232,5.68232,0,0,1,2.528-3.72738l5.74384,5.32423-7.31073,2.80133A5.69921,5.69921,0,0,1,38.752,69.88459Z"/><rect class="cls-7" x="66.72761" y="51.90664" width="2.95982" height="47.32258" transform="translate(-18.87905 128.28136) rotate(-79.11712)"/><rect class="cls-11" x="67.55475" y="52.83784" width="1.17611" height="47.32281" transform="translate(-19.64235 129.31347) rotate(-79.33889)"/><line class="cls-8" x1="40.1217" y1="72.67193" x2="23.64572" y2="77.24875"/><line class="cls-8" x1="39.86012" y1="71.60485" x2="22.37878" y2="74.82067"/><line class="cls-8" x1="39.4956" y1="71.06394" x2="21.76728" y2="71.78124"/><line class="cls-8" x1="39.68674" y1="70.06083" x2="21.97889" y2="66.64514"/><line class="cls-8" x1="39.61028" y1="70.46072" x2="21.68495" y2="69.11431"/><line class="cls-8" x1="40.90958" y1="67.71222" x2="27.31711" y2="57.32985"/><line class="cls-8" x1="40.26573" y1="68.60576" x2="25.23895" y2="59.11407"/><line class="cls-8" x1="39.72497" y1="68.97329" x2="23.5369" y2="61.70379"/><line class="cls-8" x1="39.60727" y1="69.57591" x2="22.46983" y2="64.15535"/><path class="cls-11" d="M38.57557,72.32216l-12.60471,3.6273s-4.0919-8.75753,5.27351-18.555l-1.608-2.02819S15.806,64.4082,24.889,79.962l14.824-5.67927Z"/><text class="cls-13" transform="translate(23.31738 99.77344)"><tspan class="cls-14">M</tspan><tspan x="10.97119" y="0">aid </tspan><tspan class="cls-15" x="31.18066" y="0">A</tspan><tspan x="39.42969" y="0">buse</tspan></text></svg>