<svg id="Layer_2" data-name="Layer 2" xmlns="http://www.w3.org/2000/svg" viewBox="0 0 113.38583 113.38583"><defs><style>.cls-1,.cls-2,.cls-5{fill:#fff;}.cls-2,.cls-5,.cls-6,.cls-7,.cls-8{stroke:#12110b;}.cls-2,.cls-7,.cls-8,.cls-9{stroke-miterlimit:10;}.cls-2,.cls-5,.cls-6,.cls-7,.cls-8,.cls-9{stroke-width:0.5px;}.cls-3{fill:#2b2523;}.cls-4{fill:#12110b;opacity:0.2;}.cls-5,.cls-6{stroke-linecap:round;stroke-linejoin:round;}.cls-6,.cls-7,.cls-9{fill:none;}.cls-8{fill:#3baae1;}.cls-9{stroke:#2b2523;}.cls-10{font-size:13.54536px;fill:#1d1d1b;font-family:MyriadPro-Regular, Myriad Pro;}.cls-11{letter-spacing:0.004em;}.cls-12{letter-spacing:-0.004em;}.cls-13{letter-spacing:-0.00004em;}</style></defs><title>case-02</title><rect class="cls-1" width="113.38583" height="113.38583" rx="14.15184" ry="14.15184"/><path class="cls-2" d="M88.92916,75.385A6.37567,6.37567,0,0,1,82.541,81.73695l-23.35279-.06422a6.374,6.374,0,0,1-6.34945-6.38733L52.957,33.57389a6.368,6.368,0,0,1,6.38321-6.34962l23.35032.06686A6.36768,6.36768,0,0,1,89.04245,33.676Z" transform="translate(0 0)"/><path class="cls-2" d="M52.90151,52.10552s.90617,4.52921,4.97776,4.53958c4.07571.01284,26.24239.07245,26.24239.07245s3.82739.68749,4.86859-4.51159" transform="translate(0 0)"/><line class="cls-2" x1="88.92916" y1="75.38503" x2="52.83877" y2="75.2854"/><circle class="cls-3" cx="64.53781" cy="38.77301" r="1.51998" transform="translate(25.52792 103.16791) rotate(-89.78947)"/><path class="cls-4" d="M56.86623,56.98366l-.1375,18.30965s1.3814,3.22108,4.44555,3.22108H88.088s-1.50507,2.99581-4.3321,3.1068c-2.82538.111-25.95455-.106-25.95455-.106A8.92764,8.92764,0,0,1,52.604,73.04855l.18657-19.13234Z" transform="translate(0 0)"/><path class="cls-2" d="M52.94564,37.25407s9.71528-2.28922,9.40092-10.02255C62.34657,27.23152,52.00259,25.712,52.94564,37.25407Z" transform="translate(0 0)"/><path class="cls-2" d="M88.98136,37.25407s-9.71923-2.28922-9.40323-10.02255C79.57813,27.23152,89.92458,25.712,88.98136,37.25407Z" transform="translate(0 0)"/><line class="cls-2" x1="63.52049" y1="38.77363" x2="60.85665" y2="37.67216"/><line class="cls-2" x1="63.52049" y1="38.77363" x2="60.85665" y2="39.78667"/><circle class="cls-3" cx="79.66911" cy="38.77301" r="1.52369" transform="translate(-0.14193 0.293) rotate(-0.21053)"/><line class="cls-2" x1="80.68602" y1="38.77363" x2="83.35233" y2="37.67216"/><line class="cls-2" x1="80.68602" y1="38.77363" x2="83.35233" y2="39.78667"/><path class="cls-5" d="M67.585,47.26509s-4.47058,3.31675-5.23119,6.65112" transform="translate(0 0)"/><path class="cls-5" d="M78.57629,47.26509s4.46729,3.31675,5.231,6.65112" transform="translate(0 0)"/><path class="cls-2" d="M71.34471,48.42616l6.18874.01844a6.90212,6.90212,0,0,0,1.13687-2.26337c0-.677-7.28872-8.92717-7.28872-8.92717" transform="translate(0 0)"/><polyline class="cls-6" points="91.396 63.122 97.738 63.122 97.738 81.869"/><circle class="cls-2" cx="29.47664" cy="26.96879" r="8.31102"/><path class="cls-2" d="M46.59454,75.7114a6.04447,6.04447,0,0,1-6.05766,6.02555l-22.15071-.06109a6.04554,6.04554,0,0,1-6.02473-6.056l.111-39.56391a6.03473,6.03473,0,0,1,6.05766-6.02473l22.14906.05961a6.03771,6.03771,0,0,1,6.02077,6.05684Z" transform="translate(0 0)"/><path class="cls-7" d="M12.42419,61.52883s.85875,4.29768,4.72137,4.3041c3.86263.01136,24.88849.07081,24.88849.07081s3.63012.65439,4.61763-4.27907" transform="translate(0 0)"/><line class="cls-8" x1="46.59454" y1="75.7114" x2="12.36145" y2="75.61985"/><circle class="cls-3" cx="21.76517" cy="48.09868" r="1.44406" transform="translate(-26.38794 69.74315) rotate(-89.8563)"/><circle class="cls-3" cx="37.84048" cy="48.09868" r="1.44407" transform="translate(-10.35295 85.81841) rotate(-89.8563)"/><path class="cls-9" d="M12.4395,48.099c1.09422.00725,17.48483-3.51929,21.22758-18.02675" transform="translate(0 0)"/><path class="cls-9" d="M30.38656,37.15905s1.95626,8.74653,16.31338,9.49577" transform="translate(0 0)"/><path class="cls-7" d="M12.36145,70.58165s0,3.74687,5.38466,3.74687H28.43029" transform="translate(0 0)"/><path class="cls-4" d="M21.657,30.061s-5.937.82976-6.167,6.03675c-.23235,5.20781,0,40.27462,0,40.27462s-.34169,2.7885,2.88894,2.5601c3.23-.2284,27.64388,0,27.64388,0s-.16648,2.5955-3.58763,2.83345c-3.4172.23152-25.36767,0-25.36767,0s-4.66176.04018-4.628-8.68363c.0298-8.72875.111-36.96923.111-36.96923S11.82513,29.51745,21.657,30.061Z" transform="translate(0 0)"/><circle class="cls-2" cx="25.56329" cy="75.71062" r="4.8005"/><path class="cls-4" d="M23.43079,71.40977s-2.80529,4.01067.96084,6.17194c3.767,2.1677,5.83569-.7606,5.83569-.7606s-2.64523,5.73919-7.66,2.63568C17.55246,76.35147,23.43079,71.40977,23.43079,71.40977Z" transform="translate(0 0)"/><path class="cls-4" d="M32.26164,34.77992s.81527,8.8091,14.33291,10.99458l-.57173.88032s-11.62724-.2717-15.63626-8.98678Z" transform="translate(0 0)"/><path class="cls-4" d="M28.43029,18.72557s-8.08061,4.28237-3.49838,10.906H21.76649S18.88874,21.28485,28.43029,18.72557Z" transform="translate(0 0)"/><circle class="cls-2" cx="50.866" cy="64.46228" r="4.79877"/><path class="cls-4" d="M48.91094,59.97947s-2.80529,4.009.95771,6.17507c3.767,2.16127,5.8398-.76225,5.8398-.76225s-2.65017,5.741-7.661,2.6342C43.0326,64.91952,48.91094,59.97947,48.91094,59.97947Z" transform="translate(0 0)"/><circle class="cls-2" cx="91.3947" cy="64.46228" r="4.79877"/><path class="cls-4" d="M89.43963,59.97947s-2.80694,4.009.95771,6.17507c3.76531,2.16127,5.8398-.76225,5.8398-.76225s-2.65017,5.741-7.661,2.6342C83.5613,64.91952,89.43963,59.97947,89.43963,59.97947Z" transform="translate(0 0)"/><polyline class="cls-6" points="94.567 82.387 94.567 79.023 101.024 79.023 101.024 82.702"/><text class="cls-10" transform="translate(9.68457 99.77246)"><tspan class="cls-11">D</tspan><tspan x="9.0752" y="0">oggy </tspan><tspan class="cls-11" x="40.90674" y="0">D</tspan><tspan x="49.98193" y="0">on</tspan><tspan class="cls-12" x="64.93604" y="0">a</tspan><tspan class="cls-13" x="71.41064" y="0">tion</tspan></text></svg>