<svg id="Layer_8" data-name="Layer 8" xmlns="http://www.w3.org/2000/svg" viewBox="0 0 113.38583 113.38583"><defs><style>.cls-1,.cls-3{fill:#fff;}.cls-2{fill:#30ab66;}.cls-2,.cls-3,.cls-4,.cls-6,.cls-8{stroke:#12110b;stroke-width:0.45822px;}.cls-2,.cls-6{stroke-miterlimit:10;}.cls-3,.cls-4,.cls-8{stroke-linecap:round;stroke-linejoin:round;}.cls-4,.cls-5,.cls-7,.cls-9{fill:#12110b;}.cls-5{font-size:7.34275px;font-family:Helvetica-Bold, Helvetica;font-weight:700;}.cls-6,.cls-8{fill:none;}.cls-9{opacity:0.2;}.cls-10{font-size:13.54536px;fill:#1d1d1b;font-family:MyriadPro-Regular, Myriad Pro;}.cls-11{letter-spacing:0.00598em;}.cls-12{letter-spacing:-0.00299em;}.cls-13{letter-spacing:-0.03598em;}.cls-14{letter-spacing:-0.03298em;}.cls-15{letter-spacing:0.00397em;}</style></defs><title>case-08</title><rect class="cls-1" width="113.38583" height="113.38583" rx="14.15184" ry="14.15184"/><polyline class="cls-2" points="46.95 49.37 38.468 45.814 35.96 52.009 47.788 57.379"/><polyline class="cls-2" points="47.473 48.964 40.83 42.603 36.272 47.488 45.388 56.738"/><path class="cls-3" d="M67.77477,15.72958H57.02036a9.65021,9.65021,0,0,0-9.65245,9.64806V50.07491a5.35636,5.35636,0,0,0,0,10.1118v9.42075a10.33144,10.33144,0,0,0,.10461,1.35244c.20905.04985,16.89964,3.95113,29.95293-5.50736V25.37763A9.64994,9.64994,0,0,0,67.77477,15.72958Z" transform="translate(0 0)"/><path class="cls-4" d="M47.47253,70.95991a9.64988,9.64988,0,0,0,9.54783,8.29825H67.77477a9.65039,9.65039,0,0,0,9.65069-9.65069V65.45255C64.37216,74.911,47.68158,71.00976,47.47253,70.95991Z" transform="translate(0 0)"/><text class="cls-5" transform="matrix(0.76274, -0.64671, 0.64671, 0.76274, 42.05287, 51.75379)">$</text><path class="cls-6" d="M47.36791,25.37763c1.848,9.10971,10.62083,8.97614,10.62083,8.97614s-7.90893,30.42844,19.43671,28.8206" transform="translate(0 0)"/><circle class="cls-7" cx="51.28604" cy="35.42568" r="1.60849"/><path class="cls-6" d="M51.28482,34.82261s-1.19991.07372-1.60625-2.41017" transform="translate(0 0)"/><path class="cls-3" d="M50.48248,42.46245s-3.819-3.922-4.22179-.70281c0,0,.09426,1.10565,1.00613,1.20675A14.142,14.142,0,0,0,50.48248,42.46245Z" transform="translate(0 0)"/><path class="cls-3" d="M50.38313,42.65448s-3.03066,4.55951-4.01959,1.47233c0,0-.1097-1.10547.76618-1.37122A14.14311,14.14311,0,0,1,50.38313,42.65448Z" transform="translate(0 0)"/><path class="cls-8" d="M43.7803,55.13169a6.67309,6.67309,0,0,0,8.44552-2.68259c3.21567-5.09276,4.935-4.96077,4.935-4.96077" transform="translate(0 0)"/><path class="cls-6" d="M52.3013,71.64218c-1.20166-2.78878.59469-3.64431.59469-3.64431l7.7069-6.23088L54.90841,57.3788s-2.01243-2.24711-.809-4.66061c1.21009-2.41351,3.88934-1.12285,3.88934-1.12285" transform="translate(0 0)"/><path class="cls-6" d="M57.16078,71.64218,65.363,65.45255s1.865-1.9782.79532-4.00431" transform="translate(0 0)"/><path class="cls-9" d="M48.88149,20.19658s-.1987,11.49935,10.99629,12.56989c0,0-8.40093,29.29032,17.54768,29.02123l-.52465,1.44845S51.6378,67.2317,57.67,34.34517c0,0-9.31631-.35492-10.27452-9.64806Z" transform="translate(0 0)"/><path class="cls-9" d="M56.24541,51.25938s-2.62765,3.09069,0,5.16824l6.78292,5.02062-9.05056,7.51311s-1.27714,1.846.26557,2.8009l-2.357.59469s-.72335-2.26255.14235-3.30993c.86728-1.04913,8.317-7.07078,8.317-7.07078l-5.17842-4.39679S50.54935,52.1902,56.24541,51.25938Z" transform="translate(0 0)"/><path class="cls-9" d="M47.00633,56.02478a3.16528,3.16528,0,0,0,2.67223,3.55163V71.2806l-2.206-.32069-.10461-10.77319s-4.06926-1.52218-3.55514-4.48421Z" transform="translate(0 0)"/><text class="cls-10" transform="translate(26.50098 99.93457)"><tspan class="cls-11">S</tspan><tspan class="cls-12" x="6.75879" y="0">e</tspan><tspan x="13.50439" y="0">x</tspan><tspan class="cls-13" x="19.77588" y="0"> </tspan><tspan class="cls-14" x="22.16016" y="0">W</tspan><tspan x="33.17285" y="0">o</tspan><tspan class="cls-15" x="40.60938" y="0">r</tspan><tspan x="45.09277" y="0">ker</tspan></text></svg>